<?xml version="1.0" encoding="UTF-8" standalone="no"?>
<svg width="220px" height="55px" viewBox="0 0 220 55" version="1.1" xmlns="http://www.w3.org/2000/svg" xmlns:xlink="http://www.w3.org/1999/xlink" xmlns:sketch="http://www.bohemiancoding.com/sketch/ns">
    <title>logo</title>
    <description>Created with Sketch (http://www.bohemiancoding.com/sketch)</description>
    <defs></defs>
    <g id="Page-1" stroke="none" stroke-width="1" fill="none" fill-rule="evenodd" sketch:type="MSPage">
        <g id="Group" sketch:type="MSLayerGroup" transform="translate(0.000000, -4.000000)">
            <text id="uniflow" fill="#818181" sketch:type="MSTextLayer" font-family="Cabin" font-size="48" font-weight="420" sketch:alignment="middle" line-spacing="60">
                <tspan x="68.5" y="46" fill="#4A4A4A">uniflow</tspan>
            </text>
            <path d="M5,40.0057262 C5,47.7345502 11.2692748,54 18.9942738,54 L28,54 L28,46 L20.9929714,46 C16.5743339,46 13,42.4214248 13,38.0070286 L13,18.9929714 L5,19 L5,40.0057262 Z M13,19 L13,26 L18,26 L13,19 Z M0,26 L5,26 L5,19 L0,26 Z" id="Rectangle-5" fill="#F6A623" sketch:type="MSShapeGroup"></path>
            <path d="M18.9942738,4 L41.0057262,4 C47.7035036,4 53.3069626,8.70995551 54.6787578,15 L45.2503574,15 C43.7863201,13.1711713 41.5348333,12 39.0070286,12 L20.9929714,12 C18.4667728,12 16.2142936,13.1705433 14.7495484,15 L5.32131642,15 C6.69283652,8.71225776 12.2935875,4 18.9942738,4 Z" id="Path" fill="#D8D8D8" sketch:type="MSShapeGroup"></path>
            <path d="M55,40.0057262 C55,47.7307252 48.7345502,54 41.0057262,54 L32,54 L32,46 L39.0070286,46 C43.4214248,46 47,42.4256661 47,38.0070286 L47,19.9929714 C47,19.6567276 46.9792623,19.3253331 46.9389933,19 L55,19 L55,40.0057262 Z M32,46 L37.3409424,46 L40,46 L39,46 L39,41.0401001 L32,46 Z M32,54 L39,59 L39,54 L32,54 Z" id="Path" fill="#F6A623" sketch:type="MSShapeGroup"></path>
        </g>
    </g>
</svg>