<?xml version="1.0" encoding="UTF-8" standalone="no"?>
<svg width="220px" height="55px" viewBox="0 0 220 55" version="1.1" xmlns="http://www.w3.org/2000/svg" xmlns:xlink="http://www.w3.org/1999/xlink" xmlns:sketch="http://www.bohemiancoding.com/sketch/ns">
    <title>logo</title>
    <description>Created with Sketch (http://www.bohemiancoding.com/sketch)</description>
    <defs></defs>
    <g id="Page-1" stroke="none" stroke-width="1" fill="none" fill-rule="evenodd" sketch:type="MSPage">
        <g id="Group" sketch:type="MSLayerGroup">
            <path d="M5,36.0057262 C5,43.7345502 11.2692748,50 18.9942738,50 L28,50 L28,42 L20.9929714,42 C16.5743339,42 13,38.4214248 13,34.0070286 L13,14.9929714 L5,15 L5,36.0057262 Z M13,15 L13,22 L18,22 L13,15 Z M0,22 L5,22 L5,15 L0,22 Z" id="Rectangle-5" fill="#F6A623" sketch:type="MSShapeGroup"></path>
            <path d="M18.9942738,0 L41.0057262,0 C47.7035036,0 53.3069626,4.70995551 54.6787578,11 L45.2503574,11 C43.7863201,9.17117135 41.5348333,8 39.0070286,8 L20.9929714,8 C18.4667728,8 16.2142936,9.17054335 14.7495484,11 L5.32131642,11 C6.69283652,4.71225776 12.2935875,0 18.9942738,0 Z" id="Path" fill="#D8D8D8" sketch:type="MSShapeGroup"></path>
            <path d="M55,36.0057262 C55,43.7307252 48.7345502,50 41.0057262,50 L32,50 L32,42 L39.0070286,42 C43.4214248,42 47,38.4256661 47,34.0070286 L47,15.9929714 C47,15.6567276 46.9792623,15.3253331 46.9389933,15 L55,15 L55,36.0057262 Z M32,42 L37.3409424,42 L40,42 L39,42 L39,37.0401001 L32,42 Z M32,50 L39,55 L39,50 L32,50 Z" id="Path" fill="#F5A623" sketch:type="MSShapeGroup"></path>
            <path d="M91.252,44 L86.788,44 L86.452,41.792 C84.9479925,43.584009 82.9160128,44.48 80.356,44.48 C74.2119693,44.48 71.14,40.8960358 71.14,33.728 L71.14,20.336 L76.036,20.336 L76.036,32.96 C76.036,35.4560125 76.4519958,37.2959941 77.284,38.48 C78.1160042,39.6640059 79.4439909,40.256 81.268,40.256 C83.5080112,40.256 85.2039942,39.4400082 86.356,37.808 L86.356,20.336 L91.252,20.336 L91.252,44 Z M118.228,44 L113.332,44 L113.332,31.04 C113.332,28.6079878 112.892004,26.8400055 112.012,25.736 C111.131996,24.6319945 109.68401,24.08 107.668,24.08 C104.915986,24.08 102.996005,24.9919909 101.908,26.816 L101.908,44 L97.012,44 L97.012,20.336 L101.14,20.336 L101.476,22.448 C103.49201,20.7199914 105.795987,19.856 108.388,19.856 C114.948033,19.856 118.228,23.5839627 118.228,31.04 L118.228,44 Z M128.644,15.584 L123.748,15.584 L123.748,10.4 L128.644,10.4 L128.644,15.584 Z M128.644,44 L123.748,44 L123.748,20.336 L128.644,20.336 L128.644,44 Z M146.788,24.224 L140.836,24.224 L140.836,44 L135.94,44 L135.94,24.224 L132.1,24.224 L132.628,20.336 L135.94,20.336 L135.94,14.432 C135.94,12.5759907 136.411995,11.0400061 137.356,9.824 C138.300005,8.60799392 139.683991,8 141.508,8 C143.49201,8 145.187993,8.17599824 146.596,8.528 L145.972,12.608 C145.011995,12.3519987 144.084004,12.224 143.188,12.224 C142.675997,12.224 142.268002,12.2799994 141.964,12.392 C141.659998,12.5040006 141.420001,12.7359982 141.244,13.088 C141.067999,13.4400018 140.956,13.9519966 140.908,14.624 C140.86,15.2960034 140.836,16.1919944 140.836,17.312 L140.836,20.336 L146.788,20.336 L146.788,24.224 Z M158.788,40.544 L158.164,44.48 L156.532,44.48 C154.45199,44.48 152.916005,43.9200056 151.924,42.8 C150.931995,41.6799944 150.436,40.2880083 150.436,38.624 L150.436,8 L155.284,8 L155.284,36.128 C155.284,37.120005 155.324,37.9039971 155.404,38.48 C155.484,39.0560029 155.643999,39.4959985 155.884,39.8 C156.124001,40.1040015 156.475998,40.3039995 156.94,40.4 C157.404002,40.4960005 158.019996,40.544 158.788,40.544 Z M172.42,44.48 C170.627991,44.48 169.004007,44.1680031 167.548,43.544 C166.091993,42.9199969 164.852005,42.0560055 163.828,40.952 C162.803995,39.8479945 162.012003,38.5520074 161.452,37.064 C160.891997,35.5759926 160.612,33.9520088 160.612,32.192 C160.612,30.4639914 160.883997,28.8480075 161.428,27.344 C161.972003,25.8399925 162.755995,24.5360055 163.78,23.432 C164.804005,22.3279945 166.043993,21.4560032 167.5,20.816 C168.956007,20.1759968 170.595991,19.856 172.42,19.856 C174.244009,19.856 175.883993,20.1759968 177.34,20.816 C178.796007,21.4560032 180.043995,22.3359944 181.084,23.456 C182.124005,24.5760056 182.915997,25.8799926 183.46,27.368 C184.004003,28.8560074 184.276,30.4639914 184.276,32.192 C184.276,33.9200086 184.004003,35.5279926 183.46,37.016 C182.915997,38.5040074 182.132005,39.7999945 181.108,40.904 C180.083995,42.0080055 178.836007,42.8799968 177.364,43.52 C175.891993,44.1600032 174.244009,44.48 172.42,44.48 Z M177.46,26.24 C176.243994,24.7999928 174.564011,24.08 172.42,24.08 C170.243989,24.08 168.564006,24.7999928 167.38,26.24 C166.195994,27.6800072 165.604,29.6639874 165.604,32.192 C165.604,34.7200126 166.187994,36.6959929 167.356,38.12 C168.524006,39.5440071 170.211989,40.256 172.42,40.256 C174.628011,40.256 176.323994,39.5360072 177.508,38.096 C178.692006,36.6559928 179.284,34.6880125 179.284,32.192 C179.284,29.6959875 178.676006,27.7120074 177.46,26.24 Z M219.748,20.336 L212.692,44 L207.796,44 L202.852,27.2 L197.908,44 L193.012,44 L186.004,20.336 L191.332,20.336 L195.7,38.384 L200.548,20.96 L205.156,20.96 L210.004,38.384 L214.42,20.336 L219.748,20.336 Z" id="uniflow" fill="#848484" sketch:type="MSShapeGroup"></path>
        </g>
    </g>
</svg>